<svg width="31" height="39" viewBox="0 0 31 39" fill="none" xmlns="http://www.w3.org/2000/svg">
<path d="M15.5 23.3402C19.7282 23.3402 23.1667 19.9017 23.1667 15.6735C23.1667 11.4453 19.7282 8.00684 15.5 8.00684C11.2719 8.00684 7.83337 11.4453 7.83337 15.6735C7.83337 19.9017 11.2719 23.3402 15.5 23.3402ZM15.5 11.8402C17.6141 11.8402 19.3334 13.5594 19.3334 15.6735C19.3334 17.7876 17.6141 19.5068 15.5 19.5068C13.386 19.5068 11.6667 17.7876 11.6667 15.6735C11.6667 13.5594 13.386 11.8402 15.5 11.8402Z" fill="white"/>
<path d="M14.3885 38.3172C14.7129 38.5488 15.1015 38.6734 15.5001 38.6734C15.8987 38.6734 16.2874 38.5488 16.6118 38.3172C17.1945 37.9051 30.889 28.017 30.8335 15.6737C30.8335 7.21925 23.9545 0.340332 15.5001 0.340332C7.04571 0.340332 0.166795 7.21925 0.166795 15.6641C0.111211 28.017 13.8058 37.9051 14.3885 38.3172ZM15.5001 4.17367C21.8424 4.17367 27.0001 9.33142 27.0001 15.6832C27.0404 24.1894 18.5898 31.8273 15.5001 34.3324C12.4124 31.8254 3.95988 24.1856 4.00013 15.6737C4.00013 9.33142 9.15788 4.17367 15.5001 4.17367Z" fill="white"/>
</svg>
